# xmcd CD database file
#
# Track frame offsets:
#	150
#	21656
#	34471
#	46501
#	61573
#	74650
#	87218
#	103240
#	113029
#	125975
#	138867
#	162916
#	179627
#	196155
#	210481
#
# Disc length: 3201 seconds
#
# Revision: 2
# Processed by: cddbd v1.5.2PL0 Copyright (c) Steve Scherf et al.
# Submitted via: jetAudio 7
#
DISCID=da0c7f0f
DTITLE=BROWN James - Feel so good
DYEAR=1900
DGENRE=Blues
TTITLE0=Living in America
TTITLE1=I got you (Feel so bad)
TTITLE2=I got the feelin'
TTITLE3=Mother Popcorn
TTITLE4=Cold sweat
TTITLE5=Please please please
TTITLE6=Night Train
TTITLE7=Papa's got a brand new bag (part 1)
TTITLE8=It's a man's man's man's world
TTITLE9=Say it loud I'm black and I'm proud
TTITLE10=Sex machine
TTITLE11=Hey America
TTITLE12=Get on the good foot
TTITLE13=Hot pants Part 1
TTITLE14=Sex Machine (live)
EXTD=
EXTT0=
EXTT1=
EXTT2=
EXTT3=
EXTT4=
EXTT5=
EXTT6=
EXTT7=
EXTT8=
EXTT9=
EXTT10=
EXTT11=
EXTT12=
EXTT13=
EXTT14=
PLAYORDER=
